<?xml version="1.0" encoding="UTF-8" standalone="no"?><!DOCTYPE svg PUBLIC "-//W3C//DTD SVG 1.1//EN" "http://www.w3.org/Graphics/SVG/1.1/DTD/svg11.dtd"><svg width="100%" height="100%" viewBox="0 0 3334 2500" version="1.1" xmlns="http://www.w3.org/2000/svg" xmlns:xlink="http://www.w3.org/1999/xlink" xml:space="preserve" xmlns:serif="http://www.serif.com/" style="fill-rule:evenodd;clip-rule:evenodd;stroke-linejoin:round;stroke-miterlimit:2;"><path d="M2565.25,525.098c-345.647,-7.579 -653.681,-109.037 -913.928,-337.718c-262.913,232.51 -572.936,329.274 -916.174,339.168c-15.297,188.437 -8.444,368.944 24.514,548.282c99.2,540.236 373.692,961.693 845.954,1249.89c33.589,20.513 57.261,21.028 91.646,0.678c696.44,-412.802 929.343,-1164.47 867.988,-1800.3Zm-1924.11,-102.391c387.914,4.025 732.673,-93.056 1010.13,-384.467c275.545,290.087 623.437,389.781 1008.12,384.633c101.025,696.33 -142.802,1578.19 -973.482,2028.63c-19.695,10.69 -57.074,6.339 -78.032,-5.496c-514.786,-290.609 -825.511,-730.123 -943.377,-1306.97c-47.928,-234.587 -58.22,-471.49 -23.368,-716.331Z" style="fill:url(#_Linear1);"/><path d="M1654.03,1811.39c-310.701,-0 -563.462,-252.786 -563.462,-563.463c-0,-310.701 252.761,-563.463 563.462,-563.463c310.678,-0 563.463,252.762 563.463,563.463c0,310.677 -252.785,563.463 -563.463,563.463Zm813.138,-1193.05c-305.111,-13.169 -577.124,-106.85 -813.582,-299.677c-235.57,192.991 -507.98,285.525 -825.347,300.893c9.169,136.556 9.45,270.492 28.513,401.715c72.769,500.612 313.345,897.578 742.052,1175.3c39.859,25.824 68.606,26.666 109.119,0.515c379.47,-245.067 615.718,-589.287 716.252,-1027.82c41.238,-179.852 59.296,-361.927 42.993,-550.925Zm-818.424,984.007c-195.735,0 -354.418,-158.683 -354.418,-354.418c-0,-195.758 158.683,-354.442 354.418,-354.442c195.758,-0 354.442,158.684 354.442,354.442c-0,195.735 -158.684,354.418 -354.442,354.418Zm5.286,-772.483c-230.517,-0 -418.065,187.548 -418.065,418.065c0,230.493 187.548,418.041 418.065,418.041c230.517,0 418.042,-187.548 418.042,-418.041c0,-230.517 -187.525,-418.065 -418.042,-418.065Zm-11.368,212.061c-55.202,0 -100.768,44.77 -100.768,99.973c0,35.764 28.093,67.038 46.268,84.722l-0,245.487l109.048,-0l-0,-245.651c18.198,-17.684 45.893,-48.91 45.893,-84.558c-0,-55.203 -45.215,-99.973 -100.441,-99.973Z" style="fill:url(#_Linear2);"/><defs><linearGradient id="_Linear1" x1="0" y1="0" x2="1" y2="0" gradientUnits="userSpaceOnUse" gradientTransform="matrix(2060.39,0,0,2060.39,620.506,1247.92)"><stop offset="0" style="stop-color:#63cbe5;stop-opacity:1"/><stop offset="0.1" style="stop-color:#3fc6f0;stop-opacity:1"/><stop offset="0.2" style="stop-color:#3bb6e9;stop-opacity:1"/><stop offset="0.5" style="stop-color:#566eb5;stop-opacity:1"/><stop offset="0.8" style="stop-color:#6755a4;stop-opacity:1"/><stop offset="1" style="stop-color:#6755a4;stop-opacity:1"/></linearGradient><linearGradient id="_Linear2" x1="0" y1="0" x2="1" y2="0" gradientUnits="userSpaceOnUse" gradientTransform="matrix(1644.89,0,0,1644.89,828.241,1267.48)"><stop offset="0" style="stop-color:#63cbe5;stop-opacity:1"/><stop offset="0.1" style="stop-color:#3fc6f0;stop-opacity:1"/><stop offset="0.2" style="stop-color:#3bb6e9;stop-opacity:1"/><stop offset="0.5" style="stop-color:#566eb5;stop-opacity:1"/><stop offset="0.8" style="stop-color:#6755a4;stop-opacity:1"/><stop offset="1" style="stop-color:#6755a4;stop-opacity:1"/></linearGradient></defs></svg>